<svg id="Layer_1" xmlns="http://www.w3.org/2000/svg" viewBox="0 0 500 500" width="500" height="500" class="illustration"><defs><style>.cls-1{fill:#fff;}.cls-2{fill:#f9bb0d;}.cls-3{fill:#231f20;opacity:.2;}.cls-4{fill:#24285b;}.cls-5{fill:#ffd44d;}.cls-6{fill:#0099f5;}</style></defs><g><path class="cls-5" d="M447.73,163.93l-.53-18.73-17.78-5.93c-48.28-16.11-89.46-40.31-115.5-57.77-28.55-19.14-45.72-34.64-45.89-34.79l-18.06-16.46-18.03,16.48c-.6,.54-17.69,15.88-45.87,34.78-26.04,17.46-67.22,41.65-115.5,57.77l-17.78,5.93-.53,18.73c-.07,2.35-1.39,58.2,20.52,122.89,13.04,38.51,31.65,72.35,55.31,100.57,29.92,35.68,67.78,62.22,112.55,78.88l9.35,3.48,9.35-3.48c44.76-16.66,82.63-43.2,112.55-78.88,23.66-28.22,42.27-62.06,55.31-100.57,21.91-64.69,20.59-120.55,20.52-122.89Zm-33.22,118.59c-12.51,36.93-30.3,69.31-52.89,96.26-28.4,33.88-64.39,59.09-106.95,74.93l-4.68,1.74-4.68-1.74c-42.56-15.84-78.55-41.05-106.95-74.93-22.59-26.94-40.38-59.33-52.89-96.26-21.14-62.44-19.88-115.96-19.82-118.21l.27-9.37,8.89-2.97c95.74-31.96,165.46-94.72,166.15-95.35l9.03-8.21,9.03,8.22c.69,.62,70.41,63.39,166.15,95.35l8.89,2.97,.27,9.37c.06,2.25,1.33,55.77-19.82,118.21Z"></path><path class="cls-2" d="M434.07,154.95l-8.89-2.97c-95.74-31.96-165.46-94.72-166.15-95.35l-9.03-8.22-9.03,8.21c-.69,.63-70.41,63.4-166.15,95.35l-8.89,2.97-.27,9.37c-.06,2.25-1.33,55.77,19.82,118.21,12.51,36.93,30.3,69.31,52.89,96.26,28.41,33.88,64.39,59.09,106.95,74.93l4.68,1.74,4.68-1.74c42.56-15.84,78.55-41.05,106.95-74.93,22.59-26.94,40.38-59.33,52.89-96.26,21.14-62.44,19.88-115.96,19.82-118.21l-.27-9.37ZM250,441.15C73.06,375.29,79.07,164.7,79.07,164.7c99.79-33.31,170.93-98.16,170.93-98.16,0,0,71.14,64.85,170.94,98.16,0,0,6,210.59-170.94,276.45Z"></path></g><g><path class="cls-6" d="M420.93,164.7c-99.79-33.31-170.93-98.16-170.93-98.16,0,0-71.14,64.85-170.93,98.16,0,0-6,210.59,170.93,276.45,176.94-65.86,170.93-276.45,170.93-276.45Z"></path><path class="cls-1" d="M250,66.54h0s-71.14,64.85-170.93,98.16c0,0-1.06,37.24,10.87,85.3H250V66.54Z"></path><path class="cls-1" d="M410.07,250H250v191.15c102.53-38.16,143.63-124.93,160.07-191.15Z"></path></g><path class="cls-3" d="M420.93,164.7c-99.79-33.31-170.93-98.16-170.93-98.16,0,0-8.7,7.92-24.26,19.65,28.97,21.83,81.76,56.84,146.68,78.51,0,0,5.43,190.83-146.68,265.99,7.68,3.79,15.75,7.3,24.26,10.47,176.94-65.86,170.93-276.45,170.93-276.45Z"></path><g><path class="cls-4" d="M253.06,167.13h-15.22c-21.19,0-38.43,17.24-38.43,38.42v30.44c0,4.41,3.58,7.99,7.99,7.99s7.99-3.58,7.99-7.99v-30.44c0-12.38,10.07-22.45,22.45-22.45h15.22c12.38,0,22.45,10.07,22.45,22.45v30.51h15.98v-30.51c0-21.19-17.24-38.42-38.42-38.42Z"></path><g><g><rect class="cls-2" x="180.13" y="232.85" width="130.64" height="107.72" rx="6" ry="6"></rect><rect class="cls-5" x="180.13" y="232.85" width="115.23" height="95.92" rx="6" ry="6"></rect></g><path class="cls-4" d="M260.51,277.4c0-8.59-6.96-15.55-15.55-15.55s-15.55,6.96-15.55,15.55c0,5.38,2.73,10.11,6.87,12.91v9.33c0,5.06,4.11,9.17,9.17,9.17s9.17-4.11,9.17-9.17v-10.06c3.59-2.85,5.89-7.24,5.89-12.18Z"></path></g></g></svg>