<svg xmlns="http://www.w3.org/2000/svg" viewBox="0 0 500 500" width="500" height="500" class="illustration"><title>Comment</title><g id="Layer_16" data-name="Layer 16"><rect x="164.94" y="75.57" width="291.7" height="45.05" fill="#3fe2fd"></rect><polygon points="460.58 108.79 419.19 104.57 436.08 183.97 460.58 183.97 460.58 108.79" fill="#3fe2fd"></polygon><path d="M436.92,275.46l18.58,27.71-10.13,15.66H248.28L229.13,308.7,203.19,329v82.16s-46.7-1.57-41.91-22.18,14-82.88,14-82.88H407l30-30.67" fill="#3fe2fd"></path></g><g id="Layer_11" data-name="Layer 11"><circle cx="229.92" cy="329.03" r="12.73" fill="none"></circle><path d="M407,306.13H243.68a26.69,26.69,0,0,1,6,40.91,29.06,29.06,0,0,1,14,24.85v10.48a7,7,0,1,1-14,0V371.89a15,15,0,0,0-15-15H222.17a15,15,0,0,0-15,15v10.48a7,7,0,0,1-14,0V371.89a29,29,0,0,1,16.08-26,26.7,26.7,0,0,1,6.93-39.79H175.28V389a16,16,0,0,0,16,16H425.53a16,16,0,0,0,16-16V303.17a16,16,0,0,0-7.73-13.67A30,30,0,0,1,407,306.13Zm-52.28,19.2h15a7,7,0,0,1,0,14h-15a7,7,0,0,1,0-14Zm-43.78-.42H311l24.19.42a7,7,0,0,1-.12,14H335l-24.18-.42a7,7,0,0,1,.12-14ZM391,369.77h-81.1a7,7,0,0,1,0-14H391a7,7,0,1,1,0,14Zm21.48-30.23H388.24a7,7,0,0,1,0-14h24.19a7,7,0,0,1,0,14Z" fill="none"></path><path d="M436.92,144.15V179.5h2.13A17.93,17.93,0,0,0,457,161.59V94.84a17.93,17.93,0,0,0-17.91-17.9H186.47a17.92,17.92,0,0,0-17.91,17.9v19.34H407A30,30,0,0,1,436.92,144.15Z" fill="none"></path><path d="M422.92,276.16V188.58a6.89,6.89,0,0,1,0-4.15V144.15a16,16,0,0,0-16-16H74.47a16,16,0,0,0-16,16v132a16,16,0,0,0,16,16H407A16,16,0,0,0,422.92,276.16Zm-74.37-91.31h32.66a7,7,0,0,1,0,14H348.55a7,7,0,0,1,0-14Zm-45.33-.28h20.27a7,7,0,0,1,0,14H303.22a7,7,0,0,1,0-14ZM244.09,184h.12l32.66.56a7,7,0,0,1-.12,14h-.12L244,198a7,7,0,0,1,.12-14Zm-66.21,75.13a7,7,0,0,1-14,0V245a22.78,22.78,0,0,0-22.75-22.75H124.27A22.78,22.78,0,0,0,101.52,245v14.15a7,7,0,0,1-14,0V245a36.8,36.8,0,0,1,23.34-34.2A33.64,33.64,0,1,1,157.33,212a36.79,36.79,0,0,1,20.55,33Zm28-59.59a7.28,7.28,0,0,1-1.22.11,7,7,0,0,1-6.89-5.79l-2.51-14.37A7,7,0,1,1,209,177.09l2.51,14.36A7,7,0,0,1,205.83,199.55Zm15.45-1.73h-.36a7,7,0,0,1-7-6.64,49.65,49.65,0,0,0-2.61-13.55,7,7,0,0,1,13.25-4.53,63.54,63.54,0,0,1,3.34,17.37A7,7,0,0,1,221.28,197.82Zm130.93,41.86H242.68a7,7,0,0,1,0-14H352.21a7,7,0,0,1,0,14Zm27.56-5.43h-.36a7,7,0,0,1-6.64-7.35,63.85,63.85,0,0,1,3.34-17.36,7,7,0,0,1,13.25,4.53,49.64,49.64,0,0,0-2.6,13.54A7,7,0,0,1,379.77,234.25Zm25.72-18.33L403,230.28a7,7,0,0,1-6.89,5.79,7.26,7.26,0,0,1-1.22-.1,7,7,0,0,1-5.68-8.11l2.52-14.36a7,7,0,1,1,13.79,2.42Z" fill="none"></path><path d="M134.74,206.76a19.65,19.65,0,1,0-19.64-19.65A19.66,19.66,0,0,0,134.74,206.76Z" fill="none"></path><path d="M157.33,212a33.64,33.64,0,1,0-46.47-1.23A36.8,36.8,0,0,0,87.52,245v14.15a7,7,0,0,0,14,0V245a22.78,22.78,0,0,1,22.75-22.75h16.86A22.78,22.78,0,0,1,163.88,245v14.15a7,7,0,0,0,14,0V245A36.79,36.79,0,0,0,157.33,212Zm-22.59-44.55a19.65,19.65,0,1,1-19.64,19.64A19.66,19.66,0,0,1,134.74,167.47Z" fill="#251ac7"></path><path d="M209,177.09a7,7,0,1,0-13.79,2.41l2.51,14.37a7,7,0,0,0,6.89,5.79,7.28,7.28,0,0,0,1.22-.11,7,7,0,0,0,5.68-8.1Z" fill="#251ac7"></path><path d="M224.58,173.11a7,7,0,0,0-13.25,4.53,49.65,49.65,0,0,1,2.61,13.55,7,7,0,0,0,7,6.64h.36a7,7,0,0,0,6.64-7.34A63.54,63.54,0,0,0,224.58,173.11Z" fill="#251ac7"></path><path d="M399.8,207.81a7,7,0,0,0-8.1,5.69l-2.52,14.36a7,7,0,0,0,5.68,8.11,7.26,7.26,0,0,0,1.22.1,7,7,0,0,0,6.89-5.79l2.52-14.36A7,7,0,0,0,399.8,207.81Z" fill="#251ac7"></path><path d="M385,205.17a7,7,0,0,0-8.89,4.36,63.85,63.85,0,0,0-3.34,17.36,7,7,0,0,0,6.64,7.35h.36a7,7,0,0,0,7-6.65,49.64,49.64,0,0,1,2.6-13.54A7,7,0,0,0,385,205.17Z" fill="#251ac7"></path><path d="M244,198l32.66.56h.12a7,7,0,0,0,.12-14L244.21,184h-.12a7,7,0,0,0-.12,14Z" fill="#251ac7"></path><path d="M303.22,198.57h20.27a7,7,0,0,0,0-14H303.22a7,7,0,0,0,0,14Z" fill="#251ac7"></path><path d="M348.55,198.85h32.66a7,7,0,0,0,0-14H348.55a7,7,0,0,0,0,14Z" fill="#251ac7"></path><path d="M352.21,225.68H242.68a7,7,0,0,0,0,14H352.21a7,7,0,0,0,0-14Z" fill="#251ac7"></path><path d="M310.77,338.91l24.18.42h.13a7,7,0,0,0,.12-14L311,324.91h-.12a7,7,0,0,0-.12,14Z" fill="#251ac7"></path><path d="M354.67,339.33h15a7,7,0,0,0,0-14h-15a7,7,0,0,0,0,14Z" fill="#251ac7"></path><path d="M412.43,325.54H388.24a7,7,0,0,0,0,14h24.19a7,7,0,0,0,0-14Z" fill="#251ac7"></path><path d="M391,355.77h-81.1a7,7,0,0,0,0,14H391a7,7,0,1,0,0-14Z" fill="#251ac7"></path><path d="M191.25,419H425.53a30,30,0,0,0,30-30V303.17a30.08,30.08,0,0,0-18.58-27.71v-82h2.13A32,32,0,0,0,471,161.59V94.84a31.94,31.94,0,0,0-31.91-31.9H186.47a31.94,31.94,0,0,0-31.91,31.9v19.34H74.47a30,30,0,0,0-30,30v132a30,30,0,0,0,30,30h86.81V389A30,30,0,0,0,191.25,419ZM441.5,303.17V389a16,16,0,0,1-16,16H191.25a16,16,0,0,1-16-16V306.13h40.87a26.7,26.7,0,0,0-6.93,39.79,29,29,0,0,0-16.08,26v10.48a7,7,0,0,0,14,0V371.89a15,15,0,0,1,15-15h12.48a15,15,0,0,1,15,15v10.48a7,7,0,1,0,14,0V371.89a29.06,29.06,0,0,0-14-24.85,26.69,26.69,0,0,0-6-40.91H407a30,30,0,0,0,26.82-16.63A16,16,0,0,1,441.5,303.17ZM229.92,341.76A12.73,12.73,0,1,1,242.65,329,12.74,12.74,0,0,1,229.92,341.76ZM168.56,94.84a17.92,17.92,0,0,1,17.91-17.9H439.05A17.93,17.93,0,0,1,457,94.84v66.75a17.93,17.93,0,0,1-17.91,17.91h-2.13V144.15a30,30,0,0,0-30-30H168.56ZM58.5,276.16v-132a16,16,0,0,1,16-16H407a16,16,0,0,1,16,16v40.28a6.89,6.89,0,0,0,0,4.15v87.58a16,16,0,0,1-16,16H74.47A16,16,0,0,1,58.5,276.16Z" fill="#251ac7"></path></g></svg>