<svg xmlns="http://www.w3.org/2000/svg" viewBox="0 0 500 500" width="500" height="500" class="illustration"><g id="Layer_10" data-name="Layer 10"><rect x="167.59" y="268.8" width="19.06" height="42.13" fill="#3fe2fd"></rect><rect x="120.24" y="233.67" width="28.97" height="209.67" fill="#3fe2fd"></rect><path d="M201.66,67.41s-63.07,70.38-52.45,158.48l-29,14v47.52L25.12,173.06l6.13-14.56L177.12,39l15.8,6.9Z" fill="#3fe2fd"></path></g><g id="Layer_3" data-name="Layer 3"><path d="M428.57,450.7H138.37a25.12,25.12,0,0,1-25.08-25.09V251a25.11,25.11,0,0,1,25.08-25.08h290.2A25.12,25.12,0,0,1,453.66,251V425.61A25.12,25.12,0,0,1,428.57,450.7ZM138.37,239.89A11.09,11.09,0,0,0,127.29,251V425.61a11.1,11.1,0,0,0,11.08,11.09h290.2a11.11,11.11,0,0,0,11.09-11.09V251a11.1,11.1,0,0,0-11.09-11.08Z" fill="#251ac7"></path><path d="M119.15,295.29a7,7,0,0,1-5.42-2.56l-88-107.45A25.07,25.07,0,0,1,29.22,150L164.31,39.31a25.11,25.11,0,0,1,35.3,3.5L351.69,228.45a7,7,0,1,1-10.83,8.88L188.78,51.69a11.09,11.09,0,0,0-15.6-1.55L38.09,160.81a11.1,11.1,0,0,0-1.55,15.6l88,107.44a7,7,0,0,1-5.41,11.44Z" fill="#251ac7"></path><path d="M236.48,321H166.83a7,7,0,0,1-7-7V271.1a7,7,0,0,1,7-7h69.65a7,7,0,0,1,7,7V314A7,7,0,0,1,236.48,321Zm-62.65-14h55.65V278.1H173.83Z" fill="#251ac7"></path><path d="M221,387.38H188.27a7,7,0,1,1,0-14H221a7,7,0,0,1,0,14Z" fill="#251ac7"></path><path d="M297.55,387.38H264.87a7,7,0,0,1,0-14h32.68a7,7,0,1,1,0,14Z" fill="#251ac7"></path><path d="M400.7,387.38H331.25a7,7,0,0,1,0-14H400.7a7,7,0,0,1,0,14Z" fill="#251ac7"></path><path d="M279,239.89a7,7,0,0,1-5.42-2.56L141.46,76.12,116.74,96.37,225,228.45a7,7,0,1,1-10.83,8.88L101.48,99.83a7,7,0,0,1,1-9.85L138,60.85a7,7,0,0,1,9.85,1l136.5,166.62A7,7,0,0,1,279,239.89Z" fill="#251ac7"></path></g></svg>