<svg xmlns="http://www.w3.org/2000/svg" viewBox="0 0 500 500" width="500" height="500" class="illustration"><title>49. Online Payment</title><g id="Layer_12" data-name="Layer 12"><path d="M239.29,48.87s27,6.76,25.34,49,0,307.46,0,307.46,1.69,43.92-28.72,45.61,46.52,5.31,57.44-28.72S295,72.52,295,72.52,278.15,48.87,239.29,48.87Z" fill="#3fe2fd"></path><rect x="300.95" y="240.62" width="31.25" height="153.73" fill="#3fe2fd"></rect></g><g id="Layer_11" data-name="Layer 11"><path d="M304.27,330.11v58.08h96.08a27.41,27.41,0,0,0,27.38-27.38v-30.7Z" fill="none"></path><path d="M427.73,277.82v-3.67a27.41,27.41,0,0,0-27.38-27.38H304.27v31Z" fill="none"></path><rect x="304.27" y="291.82" width="123.2" height="24.29" fill="none"></rect><path d="M262.35,41.4H100.19A42,42,0,0,0,58.27,83.33V416.67a42,42,0,0,0,41.92,41.93H262.35a42,42,0,0,0,41.92-41.93V403.36a6,6,0,0,0,.06-.85c0-.11,0-.21,0-.32h96a41.42,41.42,0,0,0,41.38-41.38V274.15a41.43,41.43,0,0,0-41.38-41.38H304.27V83.33A42,42,0,0,0,262.35,41.4Zm0,403.2H100.19a28,28,0,0,1-27.92-27.93v-7.18l.38,0H290.27v7.16A28,28,0,0,1,262.35,444.6ZM221.6,56.44A21.76,21.76,0,0,1,201,71.16H157.11a21.76,21.76,0,0,1-20.56-14.72Zm-99.7-1a35.77,35.77,0,0,0,35.21,29.76H201A35.77,35.77,0,0,0,236.25,55.4h26.1a28,28,0,0,1,27.92,27.93V395.51H72.65l-.38,0V83.33A28,28,0,0,1,100.19,55.4ZM304.27,291.82H427.48v24.29H304.27Zm96.08,96.37H304.27V330.11H427.73v30.7A27.41,27.41,0,0,1,400.35,388.19Zm0-141.42a27.41,27.41,0,0,1,27.38,27.38v3.67H304.27v-31Z" fill="#251ac7"></path><path d="M186.68,247.31a7.22,7.22,0,0,0,1.55-.18l.45,0a31,31,0,1,1-31,31,7,7,0,0,0-14,0,45.08,45.08,0,0,0,36.47,44.19v17.09a7,7,0,0,0,14,0V322.83a45,45,0,0,0-5.46-89.68,7.15,7.15,0,0,0-1.55.18l-.45,0a31,31,0,1,1,31-31,7,7,0,1,0,14,0,45.08,45.08,0,0,0-37.55-44.38v-19.5a7,7,0,1,0-14,0v19.35a45,45,0,0,0,6.54,89.55Z" fill="#251ac7"></path></g></svg>