<svg xmlns="http://www.w3.org/2000/svg" viewBox="0 0 100 100" width="500" height="500" class="illustration"><g id="Layer_1" data-name="Layer 1"><circle cx="43.64" cy="40.26" r="25.28" fill="#f0457d"></circle><circle cx="43.53" cy="40.16" r="17.2" fill="#ffd44d"></circle><path d="M65.56,65.84H75.82a0,0,0,0,1,0,0v19a4.6,4.6,0,0,1-4.6,4.6H70.16a4.6,4.6,0,0,1-4.6-4.6v-19a0,0,0,0,1,0,0Z" transform="translate(-32.06 56.07) rotate(-35.83)" fill="#0099f5"></path></g><g id="Layer_2" data-name="Layer 2"><path d="M66.72,50.58a25.29,25.29,0,1,1,2.09-8" fill="none" stroke="#231f20" stroke-linejoin="round" stroke-width="1.5"></path><path d="M57.66,30.13a17.29,17.29,0,1,1-7.7-6" fill="none" stroke="#231f20" stroke-linejoin="round" stroke-width="1.5"></path><path d="M65.43,65.77H75.7a0,0,0,0,1,0,0v19a4.6,4.6,0,0,1-4.6,4.6H70a4.6,4.6,0,0,1-4.6-4.6v-19a0,0,0,0,1,0,0Z" transform="translate(-32.04 55.98) rotate(-35.83)" fill="none" stroke="#231f20" stroke-linejoin="round" stroke-width="1.5"></path><line x1="58.44" y1="60.75" x2="63.44" y2="67.69" fill="none" stroke="#231f20" stroke-linejoin="round" stroke-width="1.5"></line><line x1="43.53" y1="26.85" x2="43.53" y2="32.98" fill="none" stroke="#fff" stroke-linejoin="round" stroke-width="1.5"></line><line x1="43.53" y1="47.21" x2="43.53" y2="53.34" fill="none" stroke="#fff" stroke-linejoin="round" stroke-width="1.5"></line><line x1="56.78" y1="40.1" x2="50.65" y2="40.1" fill="none" stroke="#fff" stroke-linejoin="round" stroke-width="1.5"></line><line x1="36.42" y1="40.1" x2="30.29" y2="40.1" fill="none" stroke="#fff" stroke-linejoin="round" stroke-width="1.5"></line><circle cx="43.53" cy="40.16" r="3.3" fill="#ff9515"></circle><circle cx="43.53" cy="40.44" r="10.18" fill="none" stroke="#fff" stroke-linejoin="round" stroke-width="1.5"></circle></g></svg>